<svg id="Layer_1" data-name="Layer 1" xmlns="http://www.w3.org/2000/svg" viewBox="0 0 500 500"><defs><style>.cls-1{fill:#fff;}</style></defs><title>popup</title><path class="cls-1" d="M451.87,326.13h-272c-.79,0-7.73-.68-8.17,0,.13-.2,3.58.73,1.61.2s2.77,1.69,3.09,2c-2.39-2.1,1,1.91,1.27,2.83-.91-2.65.73.59,0,1,.05,0,0-.5,0-.56a26.87,26.87,0,0,0,0-4V64.2c0-3.71.59-8,0-11.64,0-.08.06-.52,0-.56s-.36,2.2-.36,2.21c.66-3.2-1.14,1.73-1.81,2.48,2-2.26-.25.17-.79.49q-3.68,1.3-.82.45-3.35.37-2.21.36a9,9,0,0,0,2.21,0h275.8a8.92,8.92,0,0,0,2.12,0c-.36.58-4.21-1.14-1,0-.38-.13-4.55-3-3.26-1.71S446,53.38,445.89,53c1.11,3.21-.61-.64,0-1-.05,0,0,.56,0,.61-.51,3.78,0,8,0,11.81v263.1a28.6,28.6,0,0,0,0,3.94c0,.06-.06.61,0,.66h0q0,1.13.36-2.21c-.65,3.25.82-.87,1.13-1.65l.68-.83q-2.1,2,.79-.49l2-.78q-2.92.74,1,0c-9.39.51-18.45,7.91-18,18,.42,9.32,7.93,18.55,18,18,18-1,30-14.64,30-32.32V89.41c0-12.3.32-24.65,0-36.94C481.42,35.22,468.39,22.4,451.2,22c-4.14-.1-8.29,0-12.42,0h-265c-17.32,0-31.46,12.2-32,30-.09,2.9,0,5.82,0,8.72V327.8c0,10,2.11,19.76,10.2,26.74,7.36,6.35,15.86,7.6,25,7.6H451.87c9.42,0,18.44-8.28,18-18S462,326.13,451.87,326.13Z"/><path class="cls-1" d="M104.65,137.55H37a18.26,18.26,0,0,0-18,18V459.68a18.26,18.26,0,0,0,18,18H341.13a18.26,18.26,0,0,0,18-18V392c0-9.42-8.28-18.44-18-18s-18,7.91-18,18v67.65l18-18H37l18,18V155.55l-18,18h67.65c9.42,0,18.44-8.28,18-18s-7.91-18-18-18Z"/><path class="cls-1" d="M349.67,176.06l63.41-63.41,9-9c6.67-6.67,7.16-18.88,0-25.46s-18.34-7.11-25.46,0l-63.41,63.41-9,9c-6.67,6.67-7.16,18.88,0,25.46s18.34,7.11,25.46,0Z"/><path class="cls-1" d="M390.79,90.29V132.2c0,9.42,8.28,18.44,18,18s18-7.91,18-18V90.29c0-9.42-8.28-18.44-18-18s-18,7.91-18,18Z"/><path class="cls-1" d="M408.79,72.29H366.88c-9.42,0-18.44,8.28-18,18s7.91,18,18,18h41.91c9.42,0,18.44-8.28,18-18s-7.91-18-18-18Z"/></svg>