<svg id="Layer_1" data-name="Layer 1" xmlns="http://www.w3.org/2000/svg" viewBox="0 0 500 500"><defs><style>.cls-1{fill:#fff;}</style></defs><title>settings</title><path class="cls-1" d="M249.75,490.25a241.63,241.63,0,0,1-45.51-4.32,6.77,6.77,0,0,1-5.51-7.56,71.33,71.33,0,0,0-35.1-72.3l-5.77-3.33a71.63,71.63,0,0,0-80.14,5.74,6.52,6.52,0,0,1-4.06,1.4,6.93,6.93,0,0,1-5.23-2.39,238.63,238.63,0,0,1-45.54-78.76,6.78,6.78,0,0,1,3.78-8.58,71.32,71.32,0,0,0,45.09-66.55v-6.67a71.32,71.32,0,0,0-45.09-66.55,6.78,6.78,0,0,1-3.78-8.58A238.65,238.65,0,0,1,68.42,93a6.93,6.93,0,0,1,5.23-2.39A6.52,6.52,0,0,1,77.72,92a72.1,72.1,0,0,0,44.38,15.35,71.62,71.62,0,0,0,35.76-9.61l5.77-3.33a71.33,71.33,0,0,0,35.1-72.3,6.76,6.76,0,0,1,5.51-7.56,241.72,241.72,0,0,1,91,0,6.76,6.76,0,0,1,5.51,7.56,71.33,71.33,0,0,0,35.1,72.3l5.77,3.33a71.62,71.62,0,0,0,35.76,9.61A72.1,72.1,0,0,0,421.78,92a6.52,6.52,0,0,1,4.06-1.4A6.93,6.93,0,0,1,431.08,93a238.67,238.67,0,0,1,45.54,78.76,6.78,6.78,0,0,1-3.78,8.58,71.32,71.32,0,0,0-45.09,66.55v6.67a71.32,71.32,0,0,0,45.09,66.55,6.79,6.79,0,0,1,3.78,8.58,238.64,238.64,0,0,1-45.54,78.76,6.93,6.93,0,0,1-5.23,2.4,6.51,6.51,0,0,1-4.06-1.4,71.63,71.63,0,0,0-80.14-5.74l-5.77,3.33a71.33,71.33,0,0,0-35.1,72.3,6.77,6.77,0,0,1-5.51,7.56A241.6,241.6,0,0,1,249.75,490.25Zm0-329.25c-49.76,0-90.25,40-90.25,89.25S200,339.5,249.75,339.5s90.25-40,90.25-89.25S299.51,161,249.75,161Z"/><path class="cls-1" d="M249.75,20.25a231.78,231.78,0,0,1,40.72,3.61,81.25,81.25,0,0,0,40.39,79.24l5.77,3.33a81.64,81.64,0,0,0,40.76,10.95,82.19,82.19,0,0,0,48-15.57,228.57,228.57,0,0,1,40.77,70.51,81.24,81.24,0,0,0-48.45,74.61v6.67a81.24,81.24,0,0,0,48.45,74.61,228.57,228.57,0,0,1-40.77,70.51,81.63,81.63,0,0,0-88.79-4.63l-5.77,3.33a81.25,81.25,0,0,0-40.39,79.24,231.82,231.82,0,0,1-81.45,0,81.25,81.25,0,0,0-40.39-79.24l-5.77-3.33a81.63,81.63,0,0,0-88.79,4.63A228.57,228.57,0,0,1,33.3,328.19a81.24,81.24,0,0,0,48.45-74.61v-6.67A81.24,81.24,0,0,0,33.3,172.31,228.57,228.57,0,0,1,74.07,101.8a82.19,82.19,0,0,0,48,15.57,81.64,81.64,0,0,0,40.76-10.95l5.77-3.33A81.25,81.25,0,0,0,209,23.86a231.77,231.77,0,0,1,40.72-3.61m0,329.25C305,349.5,350,305,350,250.25S305,151,249.75,151,149.5,195.52,149.5,250.25s45,99.25,100.25,99.25m0-349.25a250.81,250.81,0,0,0-47.4,4.5,16.79,16.79,0,0,0-13.52,18.81,61.66,61.66,0,0,1-30.2,62.21l-5.77,3.33a61.35,61.35,0,0,1-30.76,8.27A61.89,61.89,0,0,1,83.9,84.16a16.51,16.51,0,0,0-10.24-3.54,16.92,16.92,0,0,0-12.79,5.84,249.72,249.72,0,0,0-47.44,82A16.81,16.81,0,0,0,23,189.65a61.66,61.66,0,0,1,38.8,57.27v6.67A61.66,61.66,0,0,1,23,310.85,16.81,16.81,0,0,0,13.43,332a249.73,249.73,0,0,0,47.44,82,16.92,16.92,0,0,0,12.79,5.84,16.5,16.5,0,0,0,10.24-3.54,61.63,61.63,0,0,1,69-4.94l5.77,3.33a61.66,61.66,0,0,1,30.2,62.21,16.79,16.79,0,0,0,13.52,18.81,251.74,251.74,0,0,0,94.8,0,16.79,16.79,0,0,0,13.52-18.81,61.66,61.66,0,0,1,30.2-62.21l5.77-3.33a61.63,61.63,0,0,1,69,4.94,16.51,16.51,0,0,0,10.24,3.54A16.92,16.92,0,0,0,438.63,414a249.73,249.73,0,0,0,47.44-82,16.81,16.81,0,0,0-9.52-21.13,61.66,61.66,0,0,1-38.8-57.27v-6.67a61.66,61.66,0,0,1,38.8-57.27,16.81,16.81,0,0,0,9.52-21.13,249.72,249.72,0,0,0-47.44-82,16.92,16.92,0,0,0-12.79-5.84,16.5,16.5,0,0,0-10.24,3.54,61.89,61.89,0,0,1-38.2,13.21,61.34,61.34,0,0,1-30.76-8.27l-5.77-3.33a61.66,61.66,0,0,1-30.2-62.21A16.79,16.79,0,0,0,297.15,4.75a250.81,250.81,0,0,0-47.4-4.5Zm0,329.25c-44.32,0-80.25-35.48-80.25-79.25S205.43,171,249.75,171,330,206.48,330,250.25s-35.93,79.25-80.25,79.25Z"/></svg>